<svg xmlns="http://www.w3.org/2000/svg" version="1.1" xmlns:xlink="http://www.w3.org/1999/xlink" xmlns:svgjs="http://svgjs.dev/svgjs" width="1500" height="1789" viewBox="0 0 1500 1789"><g transform="matrix(1,0,0,1,1.393623327714522,0.7263931389340996)"><svg viewBox="0 0 207 247" data-background-color="#000000" preserveAspectRatio="xMidYMid meet" height="1789" width="1500" xmlns="http://www.w3.org/2000/svg" xmlns:xlink="http://www.w3.org/1999/xlink"><g id="tight-bounds" transform="matrix(1,0,0,1,-0.19232001922460995,-0.10007915888590446)"><svg viewBox="0 0 207.3845775 247.2" height="247.2" width="207.3845775"><rect width="207.3846400384492" height="247.20036932395953" fill="url(#f82ef6df-a056-47cb-9c16-d592efbf4a33)" mask="url(#68d846f4-0566-4cbb-8a9e-1cab035024d0)" data-fill-palette-color="tertiary"></rect><g><svg viewBox="0 0 207.3845775 247.2" height="247.2" width="207.3845775"><g><svg viewBox="0 0 207.3845775 247.2" height="247.2" width="207.3845775"><g id="textblocktransform"><svg viewBox="0 0 207.3845775 247.2" height="247.2" width="207.3845775" id="textblock"><g><svg viewBox="0 0 207.3845775 247.2" height="247.2" width="207.3845775"><path d="M206.899 53.02C205.924 27.36 203.145 20.227 203.145 20.227 194.615-6.202 183.968-0.506 174.404 3.292 157.517 3.446 140.699 9.091 123.852 12.119 88.49 12.581 52.826 4.986 17.64 23.717 14.335 29.464-3.429 24.846 0.588 56.304 1.641 69.39 5.482 83.913 5.365 95.922 5.892 98.026 6.623 93.202 6.935 96.23 8.027 104.39 9.811 100.541 11.273 105.365 9.236 118.246 10.698 128.971 12.092 140.21 9.636 143.135 6.486 141.749 5.073 151.449 4.926 158.479 4.137 157.145 3.269 156.837 2.635 156.632 1.358 157.402 1.573 159.608 2.304 167.152-0.836 171.514 1.134 178.904-0.221 186.91 2.07 193.838 1.758 202.511 1.719 204.255 1.933 205.744 2.275 206.154 3.786 208.361 1.582 212.672 1.816 217.342 17.318 249.262 34.136 227.195 50.018 241.872 54.142 231.608 51.042 245.516 52.69 243.36 53.977 240.846 54.913 251.263 56.365 245.362 56.59 243.668 56.248 239.665 57.048 240.435 57.467 240.846 57.838 240.743 57.896 238.382 57.984 234.841 57.214 237.048 57.009 235.201 59.222 225.861 58.676 248.081 60.753 247.158 60.655 244.438 60.051 240.538 61.289 241.051 62.517 237.151 62.556 233.918 63.648 242.693 63.687 244.592 63.882 245.926 64.194 246.85 67.607 237.305 70.999 250.237 74.578 245.926 76.771 241.205 78.877 248.492 81.1 246.696 81.88 245.259 82.67 242.693 83.42 247.004 92.614 247.928 102.413 244.079 111.129 247.158 134.421 241.41 159.311 249.518 183.871 241.923 189.662 238.998 195.677 234.841 201.322 231.506 201.322 231.506 205.895 222.371 205.895 181.316S206.87 145.393 207.016 112.703C207.162 80.013 207.845 78.679 206.87 53.02Z" opacity="1" fill="url(#f82ef6df-a056-47cb-9c16-d592efbf4a33)" data-fill-palette-color="tertiary"></path><g transform="matrix(1,0,0,1,55.76832,26.230666666666668)"><svg width="95.8479375" viewBox="0.4 -31.4 15.749999999999998 32" height="194.73866666666666" data-palette-color="#000000"><path d="M0.4-1.55L0.4-1.55 0.4-5.6Q2.18-4.45 3.95-3.83 5.73-3.2 7.4-3.2L7.4-3.2Q10.03-3.2 11.14-4.75 12.25-6.3 12.25-9.1L12.25-9.1 12.25-31.4 16.15-31.4 16.15-9.1Q16.15-5.68 15.11-3.54 14.08-1.4 12.16-0.4 10.25 0.6 7.65 0.6L7.65 0.6Q5.63 0.6 3.84-0.01 2.05-0.63 0.4-1.55Z" opacity="1" transform="matrix(1,0,0,1,0,0)" fill="#000000" class="wordmark-text-0" data-fill-palette-color="quaternary" id="text-0"></path></svg></g></svg></g></svg></g></svg></g><g></g></svg></g><defs></defs><mask id="68d846f4-0566-4cbb-8a9e-1cab035024d0"><g id="SvgjsG3318"><svg viewBox="0 0 207.3845775 247.2" height="247.2" width="207.3845775"><g><svg viewBox="0 0 207.3845775 247.2" height="247.2" width="207.3845775"><g><svg viewBox="0 0 207.3845775 247.2" height="247.2" width="207.3845775"><g id="SvgjsG3317"><svg viewBox="0 0 207.3845775 247.2" height="247.2" width="207.3845775" id="SvgjsSvg3316"><g><svg viewBox="0 0 207.3845775 247.2" height="247.2" width="207.3845775"><path d="M206.899 53.02C205.924 27.36 203.145 20.227 203.145 20.227 194.615-6.202 183.968-0.506 174.404 3.292 157.517 3.446 140.699 9.091 123.852 12.119 88.49 12.581 52.826 4.986 17.64 23.717 14.335 29.464-3.429 24.846 0.588 56.304 1.641 69.39 5.482 83.913 5.365 95.922 5.892 98.026 6.623 93.202 6.935 96.23 8.027 104.39 9.811 100.541 11.273 105.365 9.236 118.246 10.698 128.971 12.092 140.21 9.636 143.135 6.486 141.749 5.073 151.449 4.926 158.479 4.137 157.145 3.269 156.837 2.635 156.632 1.358 157.402 1.573 159.608 2.304 167.152-0.836 171.514 1.134 178.904-0.221 186.91 2.07 193.838 1.758 202.511 1.719 204.255 1.933 205.744 2.275 206.154 3.786 208.361 1.582 212.672 1.816 217.342 17.318 249.262 34.136 227.195 50.018 241.872 54.142 231.608 51.042 245.516 52.69 243.36 53.977 240.846 54.913 251.263 56.365 245.362 56.59 243.668 56.248 239.665 57.048 240.435 57.467 240.846 57.838 240.743 57.896 238.382 57.984 234.841 57.214 237.048 57.009 235.201 59.222 225.861 58.676 248.081 60.753 247.158 60.655 244.438 60.051 240.538 61.289 241.051 62.517 237.151 62.556 233.918 63.648 242.693 63.687 244.592 63.882 245.926 64.194 246.85 67.607 237.305 70.999 250.237 74.578 245.926 76.771 241.205 78.877 248.492 81.1 246.696 81.88 245.259 82.67 242.693 83.42 247.004 92.614 247.928 102.413 244.079 111.129 247.158 134.421 241.41 159.311 249.518 183.871 241.923 189.662 238.998 195.677 234.841 201.322 231.506 201.322 231.506 205.895 222.371 205.895 181.316S206.87 145.393 207.016 112.703C207.162 80.013 207.845 78.679 206.87 53.02Z" opacity="1" fill="white"></path><g transform="matrix(1,0,0,1,55.76832,26.230666666666668)"><svg width="95.8479375" viewBox="0.4 -31.4 15.749999999999998 32" height="194.73866666666666" data-palette-color="#000000"><path d="M0.4-1.55L0.4-1.55 0.4-5.6Q2.18-4.45 3.95-3.83 5.73-3.2 7.4-3.2L7.4-3.2Q10.03-3.2 11.14-4.75 12.25-6.3 12.25-9.1L12.25-9.1 12.25-31.4 16.15-31.4 16.15-9.1Q16.15-5.68 15.11-3.54 14.08-1.4 12.16-0.4 10.25 0.6 7.65 0.6L7.65 0.6Q5.63 0.6 3.84-0.01 2.05-0.63 0.4-1.55Z" opacity="1" transform="matrix(1,0,0,1,0,0)" fill="black" class="wordmark-text-0" id="SvgjsPath3315"></path></svg></g></svg></g></svg></g></svg></g><g></g></svg></g><defs><mask></mask></defs></svg><rect width="207.3845775" height="247.2" fill="black" stroke="none" visibility="hidden"></rect></g></mask><linearGradient x1="0" x2="1" y1="0.5" y2="0.5" id="f82ef6df-a056-47cb-9c16-d592efbf4a33"><stop stop-color="#f00b51" offset="0"></stop><stop stop-color="#730062" offset="1"></stop></linearGradient></svg><rect width="207.3845775" height="247.2" fill="none" stroke="none" visibility="hidden"></rect></g></svg></g></svg>